<?xml version="1.0" encoding="UTF-8" standalone="no"?>
<svg
        height="96"
        version="1.1"
        width="96"
        xmlns="http://www.w3.org/2000/svg">
    <rect
            fill="none"
            height="88"
            stroke="red"
            stroke-width="8"
            width="88"
            x="4"
            y="4"/>
    <path
            aria-label="Open lock"
            d="m 33.84,84.639999 q -3.44,0 -5.36,-1.2 -1.84,-1.12 -2.96,-2.4 -0.8,-0.88 -1.84,-2.88 -1.04,-2.08 -2.08,-4.56 -1.04,-2.48 -1.92,-4.8 -0.8,-2.32 -1.36,-3.92 -0.56,-1.6 -0.56,-1.76 -0.08,-0.56 -0.24,-1.28 -0.08,-0.72 -0.08,-1.04 0,-2.16 1.68,-4.32 1.76,-2.24 4.8,-4.24 4.72,-3.04 8.88,-5.04 4.16,-2 7.04,-3.12 0.24,-0.08 0.64,-0.24 0.4,-0.16 0.96,-0.48 -0.72,-2.24 -1.2,-4.8 -0.4,-2.56 -0.4,-4.8 0,-3.36 0.8,-6.8 0.88,-3.44 2.88,-6.48 2,-3.12 5.36,-5.36 3.36,-2.24 8.48,-3.2 1.6,-0.32 3.04,-0.4 1.52,-0.16 2.8,-0.16 5.2,0 8.24,1.76 3.12,1.76 4.64,4.48 1.52,2.72 2,5.6 0.48,2.8 0.48,4.96 0,3.68 -0.72,7.12 -0.64,3.36 -1.44,5.76 -0.8,2.32 -1.12,2.96 -0.24,0.48 -0.88,1.44 -0.56,0.88 -2.72,0.88 -1.2,0 -2.32,-0.72 -1.12,-0.8 -1.12,-1.84 0,-1.12 0.32,-3.2 0.4,-2.08 0.72,-4.56 0.4,-2.56 0.4,-4.96 0,-2.56 -0.64,-4.64 -0.56,-2.16 -2.16,-3.44 -1.52,-1.36 -4.48,-1.36 -1.52,0 -3.6,0.48 -3.84,0.96 -5.92,2.96 -2.08,2 -2.88,4.72 -0.8,2.72 -0.8,5.52 0,3.52 0.72,6.4 l 0.24,-0.08 q 1.68,0 3.12,0.32 1.52,0.32 2.64,1.2 0.64,0.48 1.44,1.68 0.88,1.12 0.88,2.72 v 0.48 q 0,1.12 -0.08,3.92 0,2.72 -0.08,6.08 0,3.28 -0.16,6.24 -0.08,2.88 -0.16,4.32 -0.24,2.8 -1.36,4.64 -1.12,1.84 -2.32,2.88 -1.2,1.04 -1.52,1.36 -3.92,3.04 -8.72,5.12 -4.8,2.08 -10,2.08 z m -7.6,-20.08 q 2.48,0 5.6,-1.04 3.12,-1.04 6.32,-2.64 3.2,-1.68 6.16,-3.44 2.96,-1.76 5.12,-3.12 2.72,-1.68 4.16,-3.36 1.52,-1.68 1.52,-3.04 0,-0.88 -0.4,-1.52 -0.4,-0.64 -0.56,-0.8 -0.64,-0.4 -1.6,-0.56 -0.88,-0.16 -1.84,-0.16 0.48,1.6 0.72,2.32 0.24,0.64 0.24,1.04 0,0.88 -0.8,2.16 -0.72,1.28 -3.44,1.28 -1.44,0 -2.32,-0.72 -0.88,-0.72 -1.44,-1.52 -0.56,-0.8 -1.28,-3.04 -0.48,0.24 -0.8,0.4 -0.32,0.08 -0.48,0.16 -1.2,0.48 -3.68,1.6 -2.4,1.04 -5.28,2.48 -2.88,1.44 -5.52,3.12 -2.64,1.68 -4.32,3.44 -1.68,1.68 -1.68,3.36 0,1.68 1.68,2.64 1.68,0.96 3.92,0.96 z m 0.96,-3.04 q -2,0 -2,-1.52 0,-1.2 1.12,-2.08 1.2,-0.96 2.64,-1.2 0.24,0 0.48,0 0.24,-0.08 0.4,-0.08 0.8,0 1.36,0.4 0.64,0.32 0.64,1.12 0,1.6 -1.6,2.48 -1.6,0.88 -3.04,0.88 z m 17.04,13.76 q 0.64,0 1.44,-0.64 0.4,-0.32 0.4,-0.88 v -3.6 q 0,-1.04 0.08,-1.2 0.16,-0.16 0.48,-0.56 0.8,-0.64 1.36,-1.52 0.64,-0.88 0.64,-1.84 0,-1.92 -2,-1.92 -1.36,0 -3.04,0.8 -1.68,0.8 -2.88,2.08 -1.2,1.28 -1.2,2.64 0,0.8 0.48,1.36 0.56,0.56 1.52,0.56 0.32,0 0.8,-0.08 0.48,-0.16 0.96,-0.16 0.32,0 0.4,0.8 0.08,0.72 0.08,1.68 0,0.96 0.08,1.76 0.08,0.72 0.4,0.72 z"/>
</svg>
